<svg xmlns="http://www.w3.org/2000/svg" version="1.1" xmlns:xlink="http://www.w3.org/1999/xlink" xmlns:svgjs="http://svgjs.dev/svgjs" width="1000" height="1000" viewBox="0 0 1000 1000"><g transform="matrix(1,0,0,1,-0.49999999999994316,-0.49999999999994316)"><svg viewBox="0 0 280 280" data-background-color="#ffffff" preserveAspectRatio="xMidYMid meet" height="1000" width="1000" xmlns="http://www.w3.org/2000/svg" xmlns:xlink="http://www.w3.org/1999/xlink"><g id="tight-bounds" transform="matrix(1,0,0,1,0.13999999999998636,0.13999999999998636)"><svg viewBox="0 0 279.72 279.72" height="279.72" width="279.72"><g><svg viewBox="0 0 279.72 279.72" height="279.72" width="279.72"><g><svg viewBox="0 0 279.72 279.72" height="279.72" width="279.72"><g id="textblocktransform"><svg viewBox="0 0 279.72 279.72" height="279.72" width="279.72" id="textblock"><g><svg viewBox="0 0 279.72 279.72" height="279.72" width="279.72"><g transform="matrix(1,0,0,1,73.92936372216631,82.40091470507423)"><svg viewBox="0 0 131.8612725556674 114.91817058985157" height="114.91817058985157" width="131.8612725556674"><g><svg xmlns="http://www.w3.org/2000/svg" xmlns:xlink="http://www.w3.org/1999/xlink" version="1.0" x="0" y="0" viewBox="1.1180000305175781 4.1185760498046875 47.92100143432617 41.76354217529297" enable-background="new 0 0 50 50" xml:space="preserve" height="114.91817058985157" width="131.8612725556674" class="icon-o-0" data-fill-palette-color="accent" id="o-0"><g fill="#471aa0" data-fill-palette-color="accent"><g fill="#471aa0" data-fill-palette-color="accent"><polygon fill="#471aa0" points="10.821,24.951 21,32.193 21,39.035 1.118,24.891 21,11.118 21,17.9   " data-fill-palette-color="accent"></polygon></g><g fill="#471aa0" data-fill-palette-color="accent"><polygon fill="#471aa0" points="49.039,25.277 35.815,16.063 34.219,21.712 39.475,25.338 31.411,30.97 29,38.79 29,39.424   " data-fill-palette-color="accent"></polygon></g><rect x="25.577" y="3.983" transform="matrix(0.9606 0.278 -0.278 0.9606 8.0575 -6.8179)" fill="#471aa0" width="4.981" height="42.035" data-fill-palette-color="accent"></rect></g></svg></g></svg></g><g><path d="M29.5 101.803l1.379 0.438-3.921 12.343-1.379-0.438c0.223-0.792 0.346-1.447 0.369-1.964 0.027-0.508-0.092-0.946-0.358-1.313-0.267-0.361-0.705-0.688-1.313-0.98-0.599-0.297-1.442-0.617-2.528-0.962v0l-13.896-4.415c-0.971-0.308-1.788-0.522-2.45-0.64-0.655-0.123-1.205-0.128-1.652-0.015-0.44 0.115-0.802 0.364-1.087 0.748-0.289 0.375-0.569 0.913-0.841 1.612v0l-1.379-0.438 3.701-11.649 1.379 0.438c-0.182 0.728-0.263 1.328-0.244 1.802 0.013 0.471 0.166 0.881 0.459 1.228 0.299 0.35 0.751 0.667 1.355 0.951 0.612 0.279 1.403 0.573 2.374 0.881v0l13.895 4.415c1.086 0.345 1.957 0.579 2.611 0.702 0.663 0.119 1.21 0.101 1.641-0.052 0.431-0.153 0.783-0.448 1.056-0.885 0.278-0.428 0.554-1.031 0.829-1.807z" fill="#471aa0" data-fill-palette-color="primary"></path><path d="M40.373 50.376v0c2.061 1.602 3.008 3.625 2.843 6.068-0.165 2.443-1.437 5.193-3.813 8.25v0l-1.895 2.436 5.04 3.919c0.724 0.563 1.347 0.971 1.869 1.223 0.527 0.256 1.031 0.328 1.512 0.215 0.49-0.114 0.98-0.409 1.469-0.884 0.498-0.476 1.095-1.161 1.79-2.055v0l1.142 0.888-8.838 11.366-1.142-0.888c0.467-0.645 0.808-1.204 1.023-1.679 0.215-0.474 0.29-0.906 0.227-1.297-0.067-0.386-0.28-0.782-0.639-1.189-0.363-0.402-0.877-0.861-1.543-1.379v0l-13.234-10.292c-0.671-0.522-1.236-0.91-1.696-1.165-0.464-0.25-0.89-0.372-1.279-0.366-0.383 0.009-0.757 0.155-1.12 0.435-0.358 0.285-0.78 0.701-1.265 1.247v0l-1.142-0.888 7.708-9.912c2.257-2.902 4.479-4.699 6.666-5.39 2.188-0.682 4.294-0.237 6.317 1.337zM27.133 59.062l8.65 6.726 1.447-1.861c1.441-1.853 2.127-3.499 2.058-4.936-0.079-1.437-0.92-2.779-2.522-4.025v0c-1.432-1.114-2.821-1.613-4.168-1.498-1.355 0.117-2.633 0.947-3.834 2.491v0l-1.714 2.205c-0.269 0.346-0.241 0.645 0.083 0.898z" fill="#471aa0" data-fill-palette-color="primary"></path><path d="M87.304 16.323l7.625 14.36c0.43 0.81 0.814 1.447 1.151 1.909 0.343 0.459 0.708 0.758 1.094 0.897 0.387 0.138 0.829 0.144 1.327 0.017 0.492-0.124 1.107-0.367 1.847-0.728v0l0.678 1.278-11.76 6.244-0.678-1.278c0.78-0.445 1.382-0.849 1.808-1.212 0.42-0.36 0.696-0.74 0.827-1.138 0.132-0.399 0.115-0.855-0.051-1.37-0.161-0.518-0.439-1.149-0.834-1.895v0l-3.559-6.702-11.894 6.315 3.44 6.479c0.43 0.81 0.823 1.442 1.178 1.895 0.349 0.456 0.723 0.75 1.121 0.882 0.399 0.132 0.868 0.124 1.407-0.025 0.534-0.146 1.203-0.417 2.008-0.814v0l0.679 1.278-11.725 6.225-0.678-1.278c0.708-0.407 1.254-0.781 1.638-1.122 0.378-0.338 0.618-0.699 0.72-1.081 0.096-0.38 0.064-0.828-0.096-1.346-0.166-0.515-0.447-1.145-0.843-1.89v0l-7.862-14.807c-0.399-0.751-0.755-1.336-1.07-1.757-0.321-0.418-0.66-0.704-1.017-0.858-0.354-0.148-0.754-0.169-1.201-0.061-0.444 0.113-0.998 0.32-1.664 0.62v0l-0.679-1.278 11.055-5.869 0.678 1.278c-0.714 0.41-1.26 0.784-1.638 1.121-0.384 0.341-0.619 0.711-0.706 1.108-0.09 0.407-0.041 0.873 0.147 1.4 0.185 0.536 0.493 1.208 0.923 2.019v0l3.132 5.898 11.894-6.316-3.25-6.121c-0.399-0.751-0.764-1.332-1.098-1.743-0.327-0.414-0.678-0.694-1.052-0.839-0.377-0.136-0.811-0.139-1.299-0.009-0.491 0.139-1.112 0.38-1.861 0.725v0l-0.678-1.278 11.089-5.888 0.679 1.277c-0.631 0.365-1.114 0.706-1.451 1.023-0.336 0.316-0.539 0.668-0.607 1.056-0.066 0.394-0.008 0.856 0.174 1.385 0.191 0.532 0.502 1.204 0.932 2.014z" fill="#471aa0" data-fill-palette-color="primary"></path><path d="M147.944 9.137l0.273 7.684c0.073 2.056-0.091 3.823-0.491 5.303-0.393 1.479-1.045 2.706-1.955 3.683-0.91 0.977-2.099 1.708-3.567 2.192-1.474 0.491-3.249 0.773-5.325 0.847v0c-3.896 0.138-6.773-0.577-8.631-2.144-1.858-1.567-2.85-4.141-2.977-7.721v0l-0.353-9.939c-0.033-0.937-0.071-1.729-0.114-2.375-0.05-0.639-0.106-1.174-0.168-1.604-0.063-0.436-0.143-0.791-0.241-1.065-0.097-0.273-0.207-0.506-0.328-0.697v0c-0.234-0.329-0.559-0.547-0.975-0.654-0.415-0.107-1.045-0.145-1.887-0.115v0l-0.051-1.446 13.013-0.461 0.051 1.446c-1.011 0.036-1.757 0.116-2.239 0.241-0.482 0.125-0.848 0.351-1.099 0.677v0c-0.162 0.201-0.291 0.442-0.39 0.722-0.105 0.28-0.18 0.648-0.224 1.102-0.045 0.447-0.066 0.998-0.063 1.652-0.004 0.655 0.011 1.451 0.044 2.388v0l0.337 9.505c0.098 2.757 0.756 4.772 1.976 6.045 1.22 1.28 3.05 1.876 5.49 1.789v0c4.982-0.177 7.374-3.035 7.178-8.576v0l-0.297-8.372c-0.036-1.018-0.084-1.887-0.143-2.607-0.066-0.727-0.149-1.341-0.248-1.844-0.106-0.502-0.232-0.923-0.379-1.263-0.14-0.333-0.312-0.603-0.514-0.811v0c-0.349-0.325-0.793-0.559-1.331-0.702-0.538-0.136-1.279-0.188-2.223-0.155v0l-0.051-1.445 11.749-0.417 0.052 1.446c-0.897 0.032-1.582 0.124-2.056 0.275-0.481 0.152-0.846 0.401-1.097 0.748v0c-0.188 0.223-0.336 0.511-0.445 0.866-0.109 0.355-0.191 0.793-0.247 1.315-0.056 0.522-0.088 1.147-0.096 1.876-0.008 0.722 0.006 1.593 0.042 2.611z" fill="#471aa0" data-fill-palette-color="primary"></path><path d="M203.71 22.285v0c-0.778 1.846-1.964 3.169-3.559 3.968-1.595 0.799-3.651 0.918-6.166 0.356v0l4.011 12.163c0.27 0.853 0.704 1.596 1.302 2.228 0.597 0.632 1.275 1.108 2.033 1.427v0l-0.561 1.334-7.926-3.338-4.009-13.655c-0.277-0.907-0.572-1.562-0.885-1.965-0.311-0.409-0.646-0.689-1.007-0.841v0l-2.761 6.555c-0.346 0.821-0.574 1.519-0.685 2.094-0.108 0.569-0.056 1.071 0.157 1.504 0.215 0.427 0.619 0.824 1.212 1.191 0.59 0.373 1.419 0.784 2.488 1.235v0l-0.562 1.333-13.269-5.588 0.562-1.334c0.734 0.309 1.349 0.506 1.848 0.592 0.502 0.094 0.939 0.055 1.311-0.117 0.37-0.166 0.708-0.481 1.014-0.946 0.299-0.467 0.612-1.089 0.939-1.866v0l6.507-15.451c0.33-0.783 0.561-1.429 0.695-1.936 0.139-0.505 0.156-0.944 0.05-1.318-0.109-0.368-0.349-0.692-0.721-0.973-0.368-0.272-0.888-0.575-1.56-0.91v0l0.562-1.333 11.571 4.873c3.233 1.361 5.489 2.981 6.769 4.86 1.283 1.872 1.496 3.825 0.64 5.858zM191.761 12.521l-3.974 9.436 2.173 0.915c2.095 0.882 3.833 1.135 5.214 0.758 1.381-0.377 2.466-1.501 3.253-3.373v0c0.602-1.43 0.651-2.763 0.148-3.999-0.504-1.237-1.523-2.179-3.059-2.826v0l-2.909-1.225c-0.404-0.17-0.686-0.066-0.846 0.314z" fill="#471aa0" data-fill-palette-color="primary"></path><path d="M255.589 55.966l-5.529 5.769-1.075-1.128c0.808-0.872 1.403-1.681 1.784-2.425 0.371-0.745 0.553-1.463 0.546-2.156-0.007-0.692-0.196-1.365-0.566-2.017-0.371-0.653-0.888-1.329-1.554-2.027v0c-0.651-0.684-1.187-1.217-1.607-1.6-0.415-0.387-0.757-0.663-1.025-0.826-0.273-0.159-0.496-0.222-0.668-0.188-0.172 0.024-0.337 0.111-0.493 0.26v0l-13.766 13.111c-0.562 0.535-1.008 1.035-1.339 1.499-0.321 0.465-0.493 0.94-0.514 1.426-0.021 0.486 0.128 1.029 0.447 1.628 0.319 0.599 0.834 1.292 1.545 2.078v0l-1.048 0.997-10.481-11.004 1.048-0.998c0.769 0.768 1.444 1.326 2.027 1.674 0.583 0.348 1.123 0.528 1.619 0.54 0.496 0.012 0.981-0.134 1.456-0.436 0.48-0.308 1.001-0.729 1.562-1.265v0l13.767-13.111c0.156-0.149 0.258-0.301 0.305-0.458 0.047-0.166 0.011-0.374-0.107-0.625-0.127-0.251-0.349-0.567-0.664-0.947-0.315-0.389-0.747-0.872-1.296-1.448v0c-0.6-0.63-1.209-1.206-1.825-1.727-0.608-0.521-1.265-0.863-1.972-1.028-0.707-0.156-1.484-0.091-2.331 0.193-0.847 0.285-1.812 0.929-2.895 1.934v0l-0.977-1.026 6.032-5.242z" fill="#471aa0" data-fill-palette-color="primary"></path><path d="M247.09 95.402l8.419-3.862 0.515 1.319c-2.014 1.148-3.364 2.66-4.051 4.536-0.681 1.873-0.62 3.837 0.182 5.892v0c0.324 0.829 0.724 1.557 1.2 2.182 0.473 0.619 0.995 1.103 1.566 1.452 0.565 0.352 1.151 0.564 1.759 0.639 0.614 0.071 1.239-0.017 1.873-0.265v0c0.54-0.211 0.972-0.477 1.296-0.799 0.33-0.324 0.588-0.794 0.775-1.41 0.191-0.625 0.314-1.422 0.369-2.393 0.062-0.973 0.086-2.209 0.072-3.71v0c-0.01-3.03 0.408-5.438 1.253-7.223 0.845-1.785 2.182-3.035 4.011-3.749v0c1.056-0.412 2.103-0.586 3.142-0.52 1.037 0.059 2.016 0.332 2.938 0.819 0.913 0.484 1.746 1.172 2.5 2.065 0.745 0.889 1.36 1.953 1.843 3.19v0c0.449 1.15 0.692 2.301 0.729 3.452 0.033 1.16-0.116 2.373-0.448 3.64v0l1.926-0.046 0.317 0.81-7.161 3.219-0.512-1.31c1.636-1.262 2.72-2.659 3.252-4.191 0.531-1.533 0.503-3.053-0.086-4.56v0c-0.547-1.401-1.332-2.402-2.356-3.002-1.023-0.6-2.075-0.689-3.156-0.267v0c-0.478 0.186-0.871 0.431-1.18 0.733-0.309 0.302-0.55 0.733-0.723 1.292-0.17 0.566-0.283 1.287-0.339 2.164-0.062 0.879-0.078 1.989-0.047 3.33v0c0.006 1.815-0.082 3.399-0.263 4.752-0.185 1.361-0.495 2.536-0.927 3.523-0.433 0.987-0.977 1.801-1.633 2.44-0.659 0.648-1.463 1.158-2.412 1.528v0c-1.15 0.449-2.293 0.609-3.429 0.481-1.143-0.126-2.223-0.501-3.241-1.125-1.027-0.627-1.971-1.479-2.833-2.554-0.864-1.082-1.586-2.364-2.164-3.847v0c-0.53-1.357-0.82-2.649-0.872-3.874-0.051-1.225 0.117-2.576 0.503-4.053v0l-2.287 0.122z" fill="#471aa0" data-fill-palette-color="primary"></path><path d="M19.403 187.718l-4.915 0.249-0.902-2.6 12.847-8.624 0.779 2.246-4.761 3.13-6.093 3.861c2.568-0.192 4.993-0.344 7.274-0.458v0l5.51-0.295 0.663 1.912-4.51 3.236-5.993 4.211c2.724-0.36 5.11-0.645 7.157-0.856v0l5.666-0.585 0.76 2.189-15.342 1.437-0.892-2.572 3.996-2.897 5.685-4.018c-1.436 0.141-3.746 0.286-6.929 0.434z" fill="#471aa0" data-fill-palette-color="primary"></path><path d="M26.302 211.15l-1.707 0.862-3.893-7.714 13.359-6.743 3.843 7.615-1.698 0.857-2.813-5.573-4.128 2.083 2.494 4.941-1.707 0.862-2.494-4.941-4.119 2.079z" fill="#471aa0" data-fill-palette-color="primary"></path><path d="M34.501 226.889v0l-3.392-4.652 12.093-8.815 2.89 3.965c0.926 1.27 1.361 2.485 1.305 3.645-0.062 1.163-0.578 2.099-1.548 2.806v0c-0.67 0.489-1.393 0.728-2.169 0.717-0.78-0.016-1.453-0.264-2.02-0.744v0c0.361 0.747 0.459 1.523 0.294 2.328-0.165 0.805-0.661 1.509-1.489 2.112v0c-0.954 0.695-1.97 0.939-3.048 0.732-1.082-0.213-2.054-0.911-2.916-2.094zM44.47 218.357v0l-1.442-1.979-3.72 2.712 1.216 1.668c0.656 0.899 1.325 1.434 2.008 1.604 0.683 0.17 1.319 0.04 1.907-0.389v0c0.512-0.374 0.788-0.871 0.828-1.492 0.045-0.625-0.221-1.333-0.797-2.124zM39.401 222.378v0l-1.598-2.191-3.818 2.784 1.729 2.371c1.109 1.521 2.29 1.824 3.543 0.91v0c0.61-0.445 0.936-1 0.978-1.665 0.036-0.661-0.242-1.397-0.834-2.209z" fill="#471aa0" data-fill-palette-color="primary"></path><path d="M58.973 232.229l-6.78 6.274c-1.421 1.315-2.844 1.947-4.269 1.896-1.42-0.055-2.735-0.736-3.944-2.043v0c-1.187-1.282-1.76-2.627-1.72-4.033 0.04-1.407 0.746-2.744 2.117-4.013v0l6.907-6.391 1.553 1.678-6.892 6.377c-0.936 0.866-1.41 1.723-1.424 2.573-0.009 0.845 0.328 1.636 1.011 2.373v0c1.539 1.663 3.232 1.641 5.079-0.068v0l6.809-6.302z" fill="#471aa0" data-fill-palette-color="primary"></path><path d="M63.684 236.408l-10.026 11.109-1.682-1.519 10.025-11.109z" fill="#471aa0" data-fill-palette-color="primary"></path><path d="M65.752 254.385l-1.228 1.608-6.69-5.11 9.082-11.892 1.818 1.388-7.855 10.284z" fill="#471aa0" data-fill-palette-color="primary"></path><path d="M72.246 260.745v0l-4.04-2.432 7.717-12.821 3.996 2.406c1.901 1.144 3.107 2.673 3.617 4.586 0.51 1.913 0.215 3.782-0.884 5.608v0c-1.144 1.901-2.662 3.121-4.553 3.66-1.891 0.539-3.842 0.203-5.853-1.007zM78.878 249.55v0l-1.96-1.179-5.713 9.492 2.011 1.21c1.462 0.88 2.846 1.091 4.153 0.634 1.312-0.454 2.4-1.398 3.263-2.83v0c0.793-1.318 1.041-2.664 0.743-4.041-0.295-1.367-1.128-2.462-2.497-3.286z" fill="#471aa0" data-fill-palette-color="primary"></path><path d="M94.062 271.261v0l-4.414-1.659 5.264-14.008 4.366 1.641c2.077 0.781 3.54 2.065 4.389 3.854 0.848 1.789 0.898 3.681 0.147 5.676v0c-0.781 2.077-2.052 3.552-3.813 4.425-1.762 0.873-3.741 0.896-5.939 0.071zM98.553 259.048v0l-2.14-0.804-3.897 10.371 2.197 0.826c1.597 0.6 2.997 0.557 4.199-0.13 1.208-0.684 2.107-1.81 2.696-3.376v0c0.541-1.44 0.54-2.809-0.002-4.108-0.538-1.29-1.556-2.217-3.053-2.779z" fill="#471aa0" data-fill-palette-color="primary"></path><path d="M111.865 261.342l-4 14.42-2.184-0.606 4-14.42z" fill="#471aa0" data-fill-palette-color="primary"></path><path d="M125.281 277.598l-0.007 0.153c-1.43 0.703-3.102 0.888-5.015 0.556v0c-2.299-0.4-4.035-1.403-5.207-3.01-1.173-1.601-1.557-3.567-1.152-5.9v0c0.393-2.26 1.422-3.97 3.089-5.132 1.667-1.162 3.594-1.553 5.78-1.173v0c1.708 0.297 3.08 0.874 4.115 1.732v0l-0.404 2.323c-1.112-1.008-2.442-1.646-3.99-1.916v0c-1.575-0.274-2.935 0.01-4.081 0.852-1.145 0.835-1.86 2.076-2.147 3.725v0c-0.294 1.695-0.048 3.114 0.739 4.256 0.787 1.143 2.018 1.86 3.693 2.152v0c0.877 0.152 1.736 0.137 2.575-0.046v0l0.709-4.077-3.001-0.521 0.338-1.944 5.214 0.906-1.229 7.067z" fill="#471aa0" data-fill-palette-color="primary"></path><path d="M133.79 264.69l-1.231 14.914-2.259-0.187 1.231-14.913z" fill="#471aa0" data-fill-palette-color="primary"></path><path d="M146.861 264.718l0.011 1.902-3.925 0.024 0.079 13.062-2.286 0.014-0.08-13.062-3.916 0.024-0.011-1.902z" fill="#471aa0" data-fill-palette-color="primary"></path><path d="M153.942 272.615v0l-0.152 0.782 4.763-0.561-0.33-0.725c-0.76-1.67-1.385-3.053-1.875-4.15-0.489-1.097-0.787-1.778-0.893-2.045v0l-0.16-0.409c-0.08 0.709-0.531 3.078-1.353 7.108zM153.4 275.368l-0.767 3.779-2.401 0.282 3.384-15.466 2.984-0.351 6.825 14.263-2.432 0.287-1.594-3.5z" fill="#471aa0" data-fill-palette-color="primary"></path><path d="M175.48 273.128l0.451 1.973-8.206 1.877-3.338-14.587 2.229-0.51 2.887 12.615z" fill="#471aa0" data-fill-palette-color="primary"></path><path d="M193.608 264.382v0c0.486 1.222 0.435 2.356-0.151 3.402-0.592 1.048-1.575 1.845-2.948 2.391v0c-1.53 0.608-2.913 0.816-4.15 0.625v0l-0.878-2.21c1.408 0.384 2.83 0.291 4.266-0.279v0c0.752-0.299 1.281-0.712 1.587-1.24 0.299-0.525 0.326-1.098 0.079-1.719v0c-0.147-0.37-0.414-0.659-0.802-0.868-0.379-0.205-0.753-0.325-1.123-0.36-0.366-0.043-0.906-0.079-1.621-0.107v0c-0.425-0.027-0.723-0.047-0.894-0.058-0.172-0.012-0.455-0.041-0.851-0.087-0.404-0.05-0.71-0.106-0.917-0.169-0.21-0.054-0.475-0.145-0.794-0.273-0.322-0.134-0.579-0.289-0.773-0.465-0.187-0.18-0.384-0.399-0.588-0.659-0.211-0.257-0.385-0.558-0.522-0.904v0c-0.471-1.185-0.414-2.293 0.171-3.323 0.594-1.027 1.571-1.811 2.931-2.351v0c1.254-0.498 2.407-0.702 3.458-0.612v0l0.837 2.107c-1.151-0.211-2.309-0.084-3.475 0.378v0c-0.759 0.301-1.288 0.704-1.588 1.209-0.298 0.51-0.338 1.041-0.119 1.593 0.219 0.552 0.607 0.906 1.163 1.062 0.558 0.163 1.353 0.264 2.385 0.304v0c0.674 0.015 1.21 0.049 1.608 0.102 0.389 0.049 0.859 0.152 1.408 0.311 0.547 0.153 1.01 0.415 1.391 0.787 0.377 0.365 0.681 0.836 0.91 1.413z" fill="#471aa0" data-fill-palette-color="primary"></path><path d="M203.104 249.031c1.752 0.636 3.187 1.982 4.306 4.038 1.119 2.056 1.469 3.996 1.05 5.822-0.41 1.828-1.539 3.246-3.388 4.252v0c-1.831 0.997-3.634 1.176-5.41 0.537-1.767-0.636-3.21-1.981-4.329-4.037v0c-1.113-2.044-1.459-3.979-1.04-5.804 0.422-1.835 1.548-3.25 3.379-4.247v0c1.872-1.019 3.683-1.206 5.432-0.561zM196.53 254.349c-0.216 1.254 0.087 2.637 0.91 4.148 0.819 1.505 1.829 2.506 3.029 3.004 1.191 0.496 2.386 0.418 3.582-0.233v0c1.238-0.674 1.964-1.634 2.177-2.879 0.219-1.248-0.089-2.639-0.924-4.174v0c-0.829-1.523-1.83-2.529-3.003-3.019-1.167-0.494-2.37-0.403-3.608 0.271v0c-1.22 0.664-1.941 1.625-2.163 2.882z" fill="#471aa0" data-fill-palette-color="primary"></path><path d="M220.686 250.529l1.164 1.655-6.886 4.843-8.609-12.24 1.871-1.315 7.444 10.584z" fill="#471aa0" data-fill-palette-color="primary"></path><path d="M223.776 230.699l6.09 6.946c1.276 1.456 1.87 2.895 1.782 4.318-0.093 1.418-0.809 2.714-2.148 3.889v0c-1.314 1.152-2.673 1.689-4.078 1.61-1.405-0.078-2.723-0.819-3.955-2.224v0l-6.204-7.075 1.72-1.507 6.19 7.06c0.84 0.959 1.685 1.456 2.533 1.492 0.844 0.031 1.644-0.284 2.4-0.946v0c1.704-1.494 1.727-3.187 0.068-5.079v0l-6.117-6.976z" fill="#471aa0" data-fill-palette-color="primary"></path><path d="M232.158 221.351l1.417 1.269-2.618 2.925 9.733 8.711-1.525 1.704-9.733-8.712-2.611 2.918-1.418-1.269z" fill="#471aa0" data-fill-palette-color="primary"></path><path d="M235.476 217.079l11.803 9.2-1.393 1.787-11.803-9.199z" fill="#471aa0" data-fill-palette-color="primary"></path><path d="M245.22 205.196c1.838-0.305 3.75 0.163 5.733 1.405 1.984 1.242 3.241 2.761 3.772 4.558 0.54 1.794 0.251 3.583-0.865 5.367v0c-1.106 1.767-2.589 2.808-4.45 3.123-1.851 0.313-3.769-0.151-5.753-1.394v0c-1.972-1.235-3.224-2.751-3.755-4.547-0.533-1.806-0.246-3.592 0.86-5.358v0c1.131-1.807 2.617-2.858 4.458-3.154zM242.101 213.056c0.427 1.199 1.37 2.254 2.828 3.167 1.452 0.909 2.824 1.286 4.114 1.131 1.281-0.153 2.284-0.807 3.007-1.961v0c0.748-1.195 0.91-2.387 0.484-3.577-0.422-1.195-1.373-2.256-2.853-3.183v0c-1.469-0.92-2.835-1.306-4.098-1.157-1.259 0.143-2.263 0.812-3.011 2.007v0c-0.737 1.178-0.894 2.369-0.471 3.573z" fill="#471aa0" data-fill-palette-color="primary"></path><path d="M254.756 201.568l5.689 2.618-0.955 2.077-13.594-6.255 1.133-2.464 7.229-0.727c1.345-0.131 2.585-0.244 3.72-0.338 1.132-0.088 1.922-0.144 2.371-0.167v0l0.697-0.014c-1.262-0.484-3.076-1.271-5.441-2.359v0l-5.708-2.626 0.956-2.078 13.594 6.256-1.134 2.463-7.219 0.755c-1.302 0.136-2.523 0.246-3.661 0.331-1.138 0.085-1.956 0.136-2.453 0.152v0l-0.719 0.037c1.39 0.513 3.221 1.293 5.495 2.339z" fill="#471aa0" data-fill-palette-color="primary"></path><path d="M265.028 180.69v0c1.252 0.403 2.095 1.163 2.529 2.281 0.432 1.124 0.421 2.389-0.031 3.795v0c-0.504 1.567-1.224 2.766-2.158 3.599v0l-2.264-0.728c1.192-0.842 2.025-1.998 2.499-3.469v0c0.248-0.77 0.266-1.442 0.053-2.013-0.215-0.565-0.64-0.95-1.276-1.155v0c-0.379-0.122-0.772-0.1-1.18 0.067-0.399 0.162-0.73 0.374-0.992 0.637-0.266 0.254-0.638 0.649-1.114 1.182v0c-0.291 0.31-0.496 0.528-0.614 0.653-0.118 0.125-0.321 0.325-0.608 0.601-0.296 0.28-0.534 0.48-0.714 0.6-0.176 0.128-0.414 0.274-0.715 0.439-0.308 0.163-0.591 0.263-0.851 0.3-0.258 0.03-0.552 0.042-0.883 0.035-0.333-0.001-0.676-0.058-1.029-0.172v0c-1.213-0.391-2.032-1.14-2.455-2.247-0.415-1.111-0.398-2.364 0.051-3.757v0c0.413-1.284 0.99-2.303 1.729-3.057v0l2.157 0.694c-0.895 0.754-1.534 1.728-1.919 2.922v0c-0.25 0.777-0.276 1.442-0.078 1.994 0.204 0.555 0.589 0.923 1.153 1.105 0.565 0.182 1.085 0.108 1.559-0.221 0.481-0.327 1.065-0.876 1.753-1.646v0c0.441-0.51 0.808-0.902 1.101-1.176 0.285-0.27 0.664-0.566 1.137-0.889 0.466-0.325 0.963-0.515 1.491-0.572 0.522-0.059 1.078 0.007 1.669 0.198z" fill="#471aa0" data-fill-palette-color="primary"></path><path d="M2.422 146.033c0-5.97 4.84-10.81 10.81-10.81 5.97 0 10.81 4.84 10.811 10.81 0 5.97-4.84 10.81-10.811 10.81-5.97 0-10.81-4.84-10.81-10.81z" fill="#471aa0" data-fill-palette-color="primary"></path><path d="M257.14 146.033c0-5.97 4.84-10.81 10.811-10.81 5.97 0 10.81 4.84 10.81 10.81 0 5.97-4.84 10.81-10.81 10.81-5.97 0-10.81-4.84-10.811-10.81z" fill="#471aa0" data-fill-palette-color="primary"></path></g></svg></g></svg></g></svg></g><g></g></svg></g><defs></defs></svg><rect width="279.72" height="279.72" fill="none" stroke="none" visibility="hidden"></rect></g></svg></g></svg>